<svg class="js-logo _e _fc" viewBox="0 0 747.71 149.02" xmlns="http://www.w3.org/2000/svg"><path d="m149.45 0h.08v73.24h-.08z" fill="#f6882e"></path><path d="m0 148.74h74.18v.06h-74.18z" fill="#ce2627"></path><path d="m149.45 148.74h-74.1v.06h74.18v-73.25h-.08z" fill="#ee6931"></path><path d="m149.45 73.24h.08v2.31h-.08z" fill="#ee6931"></path><path d="m74.18 148.74h1.17v.06h-1.17z" fill="#ee6931"></path><path d="m149.59.22v75.55h75.35v-75.55z" fill="#febe10"></path><path d="m223.77.22v75.55h75.35v-75.55z" fill="#ffe100"></path><path d="m149.59 73.46v75.54h75.35v-75.54z" fill="#f9a01b"></path><path d="m223.77 73.46v75.54h75.35v-75.54z" fill="#febe10"></path><path d="m0 .22v75.55h75.38v-75.55z" fill="#e51e26"></path><path d="m74.2.22v75.55h75.36v-75.55z" fill="#f04b23"></path><path d="m0 73.46v75.54h75.38v-75.54z" fill="#e33026"></path><path d="m74.2 73.46v75.54h75.36v-75.54z" fill="#f37333"></path><path d="m299 .22v75.55h75.35v-75.55z" fill="#c2c83e"></path><path d="m373.2.22v75.55h75.35v-75.55z" fill="#3b8943"></path><path d="m299 73.46v75.54h75.35v-75.54z" fill="#d9d924"></path><path d="m373.2 73.46v75.54h75.35v-75.54z" fill="#008a7c"></path><path d="m448.66.22v75.55h75.34v-75.55z" fill="#006b76"></path><path d="m522.84.22v75.55h75.36v-75.55z" fill="#2b4ea2"></path><path d="m448.66 73.46v75.54h75.34v-75.54z" fill="#005a70"></path><path d="m522.84 73.46v75.54h75.36v-75.54z" fill="#3e5caa"></path><path d="m598.18.22v75.55h75.35v-75.55z" fill="#43397f"></path><path d="m672.36.22v75.55h75.35v-75.55z" fill="#732a84"></path><path d="m598.18 73.46v75.54h75.35v-75.54z" fill="#56519c"></path><path d="m672.36 73.46v75.54h75.35v-75.54z" fill="#5f2771"></path><path d="m.97.73h746.71v146h-746.71z" fill="#171d21" opacity=".1"></path><g fill="#fff"><path d="m235.86 37.24h-23.1l-24.67 75h19.4l3.25-10.8h26.47l3.25 10.8h20zm-20.63 49.47 8.75-28 8.74 28z"></path><path d="m534.94 37.24h-23.1l-24.67 75h19.4l3.25-10.8h26.46l3.26 10.8h20zm-20.64 49.47 8.75-28 8.75 28z"></path><path d="m360.76 37.24 12.11 23.05 11.89-23.05h21.3l-24.22 41.94v33.06h-18.16v-33.06l-24.56-41.94z"></path><path d="m112.32 112.38h-20.05l-19.13-34.68v34.68h-18.17v-75h18.17v34.68l19.13-34.68h20.05l-20.81 37.5z"></path><path d="m710.48 112.38h-20.06l-19.13-34.68v34.68h-18.17v-75h18.17v34.68l19.13-34.68h20.06l-20.82 37.5z"></path></g></svg>
